<?xml version="1.0" encoding="UTF-8" standalone="no"?>
<!DOCTYPE svg PUBLIC "-//W3C//DTD SVG 1.1//EN"
 "http://www.w3.org/Graphics/SVG/1.1/DTD/svg11.dtd">
<!-- Generated by graphviz version 2.47.0 (20210316.0004)
 -->
<!-- Title: dependencies Pages: 1 -->
<svg width="1772pt" height="284pt"
 viewBox="0.00 0.00 1772.00 284.00" xmlns="http://www.w3.org/2000/svg" xmlns:xlink="http://www.w3.org/1999/xlink">
<g id="graph0" class="graph" transform="scale(1 1) rotate(0) translate(4 280)">
<title>dependencies</title>
<polygon fill="white" stroke="transparent" points="-4,4 -4,-280 1768,-280 1768,4 -4,4"/>
<text text-anchor="start" x="861.01" y="-42.4" font-family="Times-12" font-weight="bold" font-size="14.00">Legend</text>
<polygon fill="#ffffb3" stroke="transparent" points="648,-10 648,-30 668,-30 668,-10 648,-10"/>
<text text-anchor="start" x="671.63" y="-15.4" font-family="Times-12" font-size="14.00"> &#160;Declarations</text>
<polygon fill="#8dd3c7" stroke="transparent" points="761,-10 761,-30 781,-30 781,-10 761,-10"/>
<text text-anchor="start" x="784.73" y="-15.4" font-family="Times-12" font-size="14.00"> &#160;Module</text>
<polygon fill="#80b1d3" stroke="transparent" points="847,-10 847,-30 867,-30 867,-10 847,-10"/>
<text text-anchor="start" x="870.78" y="-15.4" font-family="Times-12" font-size="14.00"> &#160;Bootstrap</text>
<polygon fill="#fdb462" stroke="transparent" points="944,-10 944,-30 964,-30 964,-10 944,-10"/>
<text text-anchor="start" x="967.67" y="-15.4" font-family="Times-12" font-size="14.00"> &#160;Providers</text>
<polygon fill="#fb8072" stroke="transparent" points="1040,-10 1040,-30 1060,-30 1060,-10 1040,-10"/>
<text text-anchor="start" x="1063.73" y="-15.4" font-family="Times-12" font-size="14.00"> &#160;Exports</text>
<g id="clust1" class="cluster">
<title>cluster_AppModule</title>
<polygon fill="none" stroke="black" stroke-dasharray="1,5" points="8,-70 8,-268 1756,-268 1756,-70 8,-70"/>
</g>
<g id="clust14" class="cluster">
<title>cluster_AppModule_imports</title>
<polygon fill="none" stroke="black" points="1604,-78 1604,-130 1748,-130 1748,-78 1604,-78"/>
</g>
<g id="clust16" class="cluster">
<title>cluster_AppModule_bootstrap</title>
<polygon fill="none" stroke="black" points="779,-208 779,-260 903,-260 903,-208 779,-208"/>
</g>
<g id="clust2" class="cluster">
<title>cluster_AppModule_declarations</title>
<polygon fill="none" stroke="black" points="16,-78 16,-130 1596,-130 1596,-78 16,-78"/>
</g>
<!-- AddSpotComponent -->
<g id="node1" class="node">
<title>AddSpotComponent</title>
<polygon fill="#ffffb3" stroke="black" points="1587.61,-122 1456.39,-122 1456.39,-86 1587.61,-86 1587.61,-122"/>
<text text-anchor="middle" x="1522" y="-99.8" font-family="Times,serif" font-size="14.00">AddSpotComponent</text>
</g>
<!-- AppModule -->
<g id="node12" class="node">
<title>AppModule</title>
<polygon fill="#8dd3c7" stroke="black" points="882.66,-187 879.66,-191 858.66,-191 855.66,-187 799.34,-187 799.34,-151 882.66,-151 882.66,-187"/>
<text text-anchor="middle" x="841" y="-164.8" font-family="Times,serif" font-size="14.00">AppModule</text>
</g>
<!-- AddSpotComponent&#45;&gt;AppModule -->
<g id="edge1" class="edge">
<title>AddSpotComponent&#45;&gt;AppModule</title>
<path fill="none" stroke="black" d="M1522,-122.28C1522,-143.32 1522,-175 1522,-175 1522,-175 892.83,-175 892.83,-175"/>
<polygon fill="black" stroke="black" points="892.83,-171.5 882.83,-175 892.83,-178.5 892.83,-171.5"/>
</g>
<!-- AppComponent -->
<g id="node2" class="node">
<title>AppComponent</title>
<polygon fill="#ffffb3" stroke="black" points="1438.94,-122 1333.06,-122 1333.06,-86 1438.94,-86 1438.94,-122"/>
<text text-anchor="middle" x="1386" y="-99.8" font-family="Times,serif" font-size="14.00">AppComponent</text>
</g>
<!-- AppComponent&#45;&gt;AppModule -->
<g id="edge2" class="edge">
<title>AppComponent&#45;&gt;AppModule</title>
<path fill="none" stroke="black" d="M1386,-122.11C1386,-141.34 1386,-169 1386,-169 1386,-169 892.86,-169 892.86,-169"/>
<polygon fill="black" stroke="black" points="892.86,-165.5 882.86,-169 892.86,-172.5 892.86,-165.5"/>
</g>
<!-- ButtonComponent -->
<g id="node3" class="node">
<title>ButtonComponent</title>
<polygon fill="#ffffb3" stroke="black" points="1315.95,-122 1196.05,-122 1196.05,-86 1315.95,-86 1315.95,-122"/>
<text text-anchor="middle" x="1256" y="-99.8" font-family="Times,serif" font-size="14.00">ButtonComponent</text>
</g>
<!-- ButtonComponent&#45;&gt;AppModule -->
<g id="edge3" class="edge">
<title>ButtonComponent&#45;&gt;AppModule</title>
<path fill="none" stroke="black" d="M1256,-122.02C1256,-139.37 1256,-163 1256,-163 1256,-163 892.69,-163 892.69,-163"/>
<polygon fill="black" stroke="black" points="892.69,-159.5 882.69,-163 892.69,-166.5 892.69,-159.5"/>
</g>
<!-- CommentItemComponent -->
<g id="node4" class="node">
<title>CommentItemComponent</title>
<polygon fill="#ffffb3" stroke="black" points="1178.21,-122 1015.79,-122 1015.79,-86 1178.21,-86 1178.21,-122"/>
<text text-anchor="middle" x="1097" y="-99.8" font-family="Times,serif" font-size="14.00">CommentItemComponent</text>
</g>
<!-- CommentItemComponent&#45;&gt;AppModule -->
<g id="edge4" class="edge">
<title>CommentItemComponent&#45;&gt;AppModule</title>
<path fill="none" stroke="black" d="M1097,-122.24C1097,-137.57 1097,-157 1097,-157 1097,-157 892.7,-157 892.7,-157"/>
<polygon fill="black" stroke="black" points="892.7,-153.5 882.7,-157 892.7,-160.5 892.7,-153.5"/>
</g>
<!-- CommentListComponent -->
<g id="node5" class="node">
<title>CommentListComponent</title>
<polygon fill="#ffffb3" stroke="black" points="998.33,-122 839.67,-122 839.67,-86 998.33,-86 998.33,-122"/>
<text text-anchor="middle" x="919" y="-99.8" font-family="Times,serif" font-size="14.00">CommentListComponent</text>
</g>
<!-- CommentListComponent&#45;&gt;AppModule -->
<g id="edge5" class="edge">
<title>CommentListComponent&#45;&gt;AppModule</title>
<path fill="none" stroke="black" d="M861.33,-122.11C861.33,-122.11 861.33,-140.99 861.33,-140.99"/>
<polygon fill="black" stroke="black" points="857.83,-140.99 861.33,-150.99 864.83,-140.99 857.83,-140.99"/>
</g>
<!-- FooterComponent -->
<g id="node6" class="node">
<title>FooterComponent</title>
<polygon fill="#ffffb3" stroke="black" points="821.88,-122 704.12,-122 704.12,-86 821.88,-86 821.88,-122"/>
<text text-anchor="middle" x="763" y="-99.8" font-family="Times,serif" font-size="14.00">FooterComponent</text>
</g>
<!-- FooterComponent&#45;&gt;AppModule -->
<g id="edge6" class="edge">
<title>FooterComponent&#45;&gt;AppModule</title>
<path fill="none" stroke="black" d="M810.56,-122.11C810.56,-122.11 810.56,-140.99 810.56,-140.99"/>
<polygon fill="black" stroke="black" points="807.06,-140.99 810.56,-150.99 814.06,-140.99 807.06,-140.99"/>
</g>
<!-- HeaderComponent -->
<g id="node7" class="node">
<title>HeaderComponent</title>
<polygon fill="#ffffb3" stroke="black" points="685.74,-122 564.26,-122 564.26,-86 685.74,-86 685.74,-122"/>
<text text-anchor="middle" x="625" y="-99.8" font-family="Times,serif" font-size="14.00">HeaderComponent</text>
</g>
<!-- HeaderComponent&#45;&gt;AppModule -->
<g id="edge7" class="edge">
<title>HeaderComponent&#45;&gt;AppModule</title>
<path fill="none" stroke="black" d="M625,-122.24C625,-137.57 625,-157 625,-157 625,-157 789.1,-157 789.1,-157"/>
<polygon fill="black" stroke="black" points="789.1,-160.5 799.1,-157 789.1,-153.5 789.1,-160.5"/>
</g>
<!-- MainComponent -->
<g id="node8" class="node">
<title>MainComponent</title>
<polygon fill="#ffffb3" stroke="black" points="546.38,-122 435.62,-122 435.62,-86 546.38,-86 546.38,-122"/>
<text text-anchor="middle" x="491" y="-99.8" font-family="Times,serif" font-size="14.00">MainComponent</text>
</g>
<!-- MainComponent&#45;&gt;AppModule -->
<g id="edge8" class="edge">
<title>MainComponent&#45;&gt;AppModule</title>
<path fill="none" stroke="black" d="M491,-122.02C491,-139.37 491,-163 491,-163 491,-163 789.13,-163 789.13,-163"/>
<polygon fill="black" stroke="black" points="789.13,-166.5 799.13,-163 789.13,-159.5 789.13,-166.5"/>
</g>
<!-- MapComponent -->
<g id="node9" class="node">
<title>MapComponent</title>
<polygon fill="#ffffb3" stroke="black" points="417.49,-122 310.51,-122 310.51,-86 417.49,-86 417.49,-122"/>
<text text-anchor="middle" x="364" y="-99.8" font-family="Times,serif" font-size="14.00">MapComponent</text>
</g>
<!-- MapComponent&#45;&gt;AppModule -->
<g id="edge9" class="edge">
<title>MapComponent&#45;&gt;AppModule</title>
<path fill="none" stroke="black" d="M364,-122.11C364,-141.34 364,-169 364,-169 364,-169 789.09,-169 789.09,-169"/>
<polygon fill="black" stroke="black" points="789.09,-172.5 799.09,-169 789.09,-165.5 789.09,-172.5"/>
</g>
<!-- SpotDetailsComponent -->
<g id="node10" class="node">
<title>SpotDetailsComponent</title>
<polygon fill="#ffffb3" stroke="black" points="292.16,-122 145.84,-122 145.84,-86 292.16,-86 292.16,-122"/>
<text text-anchor="middle" x="219" y="-99.8" font-family="Times,serif" font-size="14.00">SpotDetailsComponent</text>
</g>
<!-- SpotDetailsComponent&#45;&gt;AppModule -->
<g id="edge10" class="edge">
<title>SpotDetailsComponent&#45;&gt;AppModule</title>
<path fill="none" stroke="black" d="M219,-122.28C219,-143.32 219,-175 219,-175 219,-175 789.22,-175 789.22,-175"/>
<polygon fill="black" stroke="black" points="789.22,-178.5 799.22,-175 789.22,-171.5 789.22,-178.5"/>
</g>
<!-- TagComponent -->
<g id="node11" class="node">
<title>TagComponent</title>
<polygon fill="#ffffb3" stroke="black" points="127.6,-122 24.4,-122 24.4,-86 127.6,-86 127.6,-122"/>
<text text-anchor="middle" x="76" y="-99.8" font-family="Times,serif" font-size="14.00">TagComponent</text>
</g>
<!-- TagComponent&#45;&gt;AppModule -->
<g id="edge11" class="edge">
<title>TagComponent&#45;&gt;AppModule</title>
<path fill="none" stroke="black" d="M76,-122.25C76,-145.02 76,-181 76,-181 76,-181 789.33,-181 789.33,-181"/>
<polygon fill="black" stroke="black" points="789.33,-184.5 799.33,-181 789.33,-177.5 789.33,-184.5"/>
</g>
<!-- AppComponent  -->
<g id="node14" class="node">
<title>AppComponent </title>
<polygon fill="#80b1d3" stroke="black" points="895.44,-252 786.56,-252 786.56,-216 895.44,-216 895.44,-252"/>
<text text-anchor="middle" x="841" y="-229.8" font-family="Times,serif" font-size="14.00">AppComponent </text>
</g>
<!-- AppModule&#45;&gt;AppComponent  -->
<g id="edge13" class="edge">
<title>AppModule&#45;&gt;AppComponent </title>
<path fill="none" stroke="black" stroke-dasharray="1,5" d="M841,-187.11C841,-187.11 841,-205.99 841,-205.99"/>
<polygon fill="black" stroke="black" points="837.5,-205.99 841,-215.99 844.5,-205.99 837.5,-205.99"/>
</g>
<!-- AppRoutingModule -->
<g id="node13" class="node">
<title>AppRoutingModule</title>
<polygon fill="#8dd3c7" stroke="black" points="1740.27,-122 1737.27,-126 1716.27,-126 1713.27,-122 1611.73,-122 1611.73,-86 1740.27,-86 1740.27,-122"/>
<text text-anchor="middle" x="1676" y="-99.8" font-family="Times,serif" font-size="14.00">AppRoutingModule</text>
</g>
<!-- AppRoutingModule&#45;&gt;AppModule -->
<g id="edge12" class="edge">
<title>AppRoutingModule&#45;&gt;AppModule</title>
<path fill="none" stroke="black" d="M1676,-122.25C1676,-145.02 1676,-181 1676,-181 1676,-181 892.69,-181 892.69,-181"/>
<polygon fill="black" stroke="black" points="892.69,-177.5 882.69,-181 892.69,-184.5 892.69,-177.5"/>
</g>
</g>
</svg>
