<?xml version="1.0" encoding="UTF-8" standalone="no"?>
<!DOCTYPE svg PUBLIC "-//W3C//DTD SVG 1.1//EN"
 "http://www.w3.org/Graphics/SVG/1.1/DTD/svg11.dtd">
<!-- Generated by graphviz version 2.47.0 (20210316.0004)
 -->
<!-- Title: dependencies Pages: 1 -->
<svg width="1498pt" height="284pt"
 viewBox="0.00 0.00 1498.00 284.00" xmlns="http://www.w3.org/2000/svg" xmlns:xlink="http://www.w3.org/1999/xlink">
<g id="graph0" class="graph" transform="scale(1 1) rotate(0) translate(4 280)">
<title>dependencies</title>
<polygon fill="white" stroke="transparent" points="-4,4 -4,-280 1494,-280 1494,4 -4,4"/>
<text text-anchor="start" x="724.01" y="-42.4" font-family="Times-12" font-weight="bold" font-size="14.00">Legend</text>
<polygon fill="#ffffb3" stroke="transparent" points="511,-10 511,-30 531,-30 531,-10 511,-10"/>
<text text-anchor="start" x="534.63" y="-15.4" font-family="Times-12" font-size="14.00"> &#160;Declarations</text>
<polygon fill="#8dd3c7" stroke="transparent" points="624,-10 624,-30 644,-30 644,-10 624,-10"/>
<text text-anchor="start" x="647.73" y="-15.4" font-family="Times-12" font-size="14.00"> &#160;Module</text>
<polygon fill="#80b1d3" stroke="transparent" points="710,-10 710,-30 730,-30 730,-10 710,-10"/>
<text text-anchor="start" x="733.78" y="-15.4" font-family="Times-12" font-size="14.00"> &#160;Bootstrap</text>
<polygon fill="#fdb462" stroke="transparent" points="807,-10 807,-30 827,-30 827,-10 807,-10"/>
<text text-anchor="start" x="830.67" y="-15.4" font-family="Times-12" font-size="14.00"> &#160;Providers</text>
<polygon fill="#fb8072" stroke="transparent" points="903,-10 903,-30 923,-30 923,-10 903,-10"/>
<text text-anchor="start" x="926.73" y="-15.4" font-family="Times-12" font-size="14.00"> &#160;Exports</text>
<g id="clust1" class="cluster">
<title>cluster_AppModule</title>
<polygon fill="none" stroke="black" stroke-dasharray="1,5" points="8,-70 8,-268 1482,-268 1482,-70 8,-70"/>
</g>
<g id="clust12" class="cluster">
<title>cluster_AppModule_imports</title>
<polygon fill="none" stroke="black" points="1330,-78 1330,-130 1474,-130 1474,-78 1330,-78"/>
</g>
<g id="clust14" class="cluster">
<title>cluster_AppModule_bootstrap</title>
<polygon fill="none" stroke="black" points="654,-208 654,-260 778,-260 778,-208 654,-208"/>
</g>
<g id="clust2" class="cluster">
<title>cluster_AppModule_declarations</title>
<polygon fill="none" stroke="black" points="16,-78 16,-130 1322,-130 1322,-78 16,-78"/>
</g>
<!-- AppComponent -->
<g id="node1" class="node">
<title>AppComponent</title>
<polygon fill="#ffffb3" stroke="black" points="1313.94,-122 1208.06,-122 1208.06,-86 1313.94,-86 1313.94,-122"/>
<text text-anchor="middle" x="1261" y="-99.8" font-family="Times,serif" font-size="14.00">AppComponent</text>
</g>
<!-- AppModule -->
<g id="node10" class="node">
<title>AppModule</title>
<polygon fill="#8dd3c7" stroke="black" points="757.66,-187 754.66,-191 733.66,-191 730.66,-187 674.34,-187 674.34,-151 757.66,-151 757.66,-187"/>
<text text-anchor="middle" x="716" y="-164.8" font-family="Times,serif" font-size="14.00">AppModule</text>
</g>
<!-- AppComponent&#45;&gt;AppModule -->
<g id="edge1" class="edge">
<title>AppComponent&#45;&gt;AppModule</title>
<path fill="none" stroke="black" d="M1261,-122.13C1261,-142.57 1261,-173 1261,-173 1261,-173 767.86,-173 767.86,-173"/>
<polygon fill="black" stroke="black" points="767.86,-169.5 757.86,-173 767.86,-176.5 767.86,-169.5"/>
</g>
<!-- ButtonComponent -->
<g id="node2" class="node">
<title>ButtonComponent</title>
<polygon fill="#ffffb3" stroke="black" points="1190.95,-122 1071.05,-122 1071.05,-86 1190.95,-86 1190.95,-122"/>
<text text-anchor="middle" x="1131" y="-99.8" font-family="Times,serif" font-size="14.00">ButtonComponent</text>
</g>
<!-- ButtonComponent&#45;&gt;AppModule -->
<g id="edge2" class="edge">
<title>ButtonComponent&#45;&gt;AppModule</title>
<path fill="none" stroke="black" d="M1131,-122.27C1131,-140.56 1131,-166 1131,-166 1131,-166 767.69,-166 767.69,-166"/>
<polygon fill="black" stroke="black" points="767.69,-162.5 757.69,-166 767.69,-169.5 767.69,-162.5"/>
</g>
<!-- CommentItemComponent -->
<g id="node3" class="node">
<title>CommentItemComponent</title>
<polygon fill="#ffffb3" stroke="black" points="1053.21,-122 890.79,-122 890.79,-86 1053.21,-86 1053.21,-122"/>
<text text-anchor="middle" x="972" y="-99.8" font-family="Times,serif" font-size="14.00">CommentItemComponent</text>
</g>
<!-- CommentItemComponent&#45;&gt;AppModule -->
<g id="edge3" class="edge">
<title>CommentItemComponent&#45;&gt;AppModule</title>
<path fill="none" stroke="black" d="M972,-122.01C972,-138.05 972,-159 972,-159 972,-159 767.7,-159 767.7,-159"/>
<polygon fill="black" stroke="black" points="767.7,-155.5 757.7,-159 767.7,-162.5 767.7,-155.5"/>
</g>
<!-- CommentListComponent -->
<g id="node4" class="node">
<title>CommentListComponent</title>
<polygon fill="#ffffb3" stroke="black" points="873.33,-122 714.67,-122 714.67,-86 873.33,-86 873.33,-122"/>
<text text-anchor="middle" x="794" y="-99.8" font-family="Times,serif" font-size="14.00">CommentListComponent</text>
</g>
<!-- CommentListComponent&#45;&gt;AppModule -->
<g id="edge4" class="edge">
<title>CommentListComponent&#45;&gt;AppModule</title>
<path fill="none" stroke="black" d="M736.33,-122.11C736.33,-122.11 736.33,-140.99 736.33,-140.99"/>
<polygon fill="black" stroke="black" points="732.83,-140.99 736.33,-150.99 739.83,-140.99 732.83,-140.99"/>
</g>
<!-- FooterComponent -->
<g id="node5" class="node">
<title>FooterComponent</title>
<polygon fill="#ffffb3" stroke="black" points="696.88,-122 579.12,-122 579.12,-86 696.88,-86 696.88,-122"/>
<text text-anchor="middle" x="638" y="-99.8" font-family="Times,serif" font-size="14.00">FooterComponent</text>
</g>
<!-- FooterComponent&#45;&gt;AppModule -->
<g id="edge5" class="edge">
<title>FooterComponent&#45;&gt;AppModule</title>
<path fill="none" stroke="black" d="M685.56,-122.11C685.56,-122.11 685.56,-140.99 685.56,-140.99"/>
<polygon fill="black" stroke="black" points="682.06,-140.99 685.56,-150.99 689.06,-140.99 682.06,-140.99"/>
</g>
<!-- HeaderComponent -->
<g id="node6" class="node">
<title>HeaderComponent</title>
<polygon fill="#ffffb3" stroke="black" points="560.74,-122 439.26,-122 439.26,-86 560.74,-86 560.74,-122"/>
<text text-anchor="middle" x="500" y="-99.8" font-family="Times,serif" font-size="14.00">HeaderComponent</text>
</g>
<!-- HeaderComponent&#45;&gt;AppModule -->
<g id="edge6" class="edge">
<title>HeaderComponent&#45;&gt;AppModule</title>
<path fill="none" stroke="black" d="M500,-122.01C500,-138.05 500,-159 500,-159 500,-159 664.1,-159 664.1,-159"/>
<polygon fill="black" stroke="black" points="664.1,-162.5 674.1,-159 664.1,-155.5 664.1,-162.5"/>
</g>
<!-- MainComponent -->
<g id="node7" class="node">
<title>MainComponent</title>
<polygon fill="#ffffb3" stroke="black" points="421.38,-122 310.62,-122 310.62,-86 421.38,-86 421.38,-122"/>
<text text-anchor="middle" x="366" y="-99.8" font-family="Times,serif" font-size="14.00">MainComponent</text>
</g>
<!-- MainComponent&#45;&gt;AppModule -->
<g id="edge7" class="edge">
<title>MainComponent&#45;&gt;AppModule</title>
<path fill="none" stroke="black" d="M366,-122.27C366,-140.56 366,-166 366,-166 366,-166 664.13,-166 664.13,-166"/>
<polygon fill="black" stroke="black" points="664.13,-169.5 674.13,-166 664.13,-162.5 664.13,-169.5"/>
</g>
<!-- SpotDetailsComponent -->
<g id="node8" class="node">
<title>SpotDetailsComponent</title>
<polygon fill="#ffffb3" stroke="black" points="292.16,-122 145.84,-122 145.84,-86 292.16,-86 292.16,-122"/>
<text text-anchor="middle" x="219" y="-99.8" font-family="Times,serif" font-size="14.00">SpotDetailsComponent</text>
</g>
<!-- SpotDetailsComponent&#45;&gt;AppModule -->
<g id="edge8" class="edge">
<title>SpotDetailsComponent&#45;&gt;AppModule</title>
<path fill="none" stroke="black" d="M219,-122.13C219,-142.57 219,-173 219,-173 219,-173 664.05,-173 664.05,-173"/>
<polygon fill="black" stroke="black" points="664.05,-176.5 674.05,-173 664.05,-169.5 664.05,-176.5"/>
</g>
<!-- TagComponent -->
<g id="node9" class="node">
<title>TagComponent</title>
<polygon fill="#ffffb3" stroke="black" points="127.6,-122 24.4,-122 24.4,-86 127.6,-86 127.6,-122"/>
<text text-anchor="middle" x="76" y="-99.8" font-family="Times,serif" font-size="14.00">TagComponent</text>
</g>
<!-- TagComponent&#45;&gt;AppModule -->
<g id="edge9" class="edge">
<title>TagComponent&#45;&gt;AppModule</title>
<path fill="none" stroke="black" d="M76,-122.01C76,-144.49 76,-180 76,-180 76,-180 664.01,-180 664.01,-180"/>
<polygon fill="black" stroke="black" points="664.01,-183.5 674.01,-180 664.01,-176.5 664.01,-183.5"/>
</g>
<!-- AppComponent  -->
<g id="node12" class="node">
<title>AppComponent </title>
<polygon fill="#80b1d3" stroke="black" points="770.44,-252 661.56,-252 661.56,-216 770.44,-216 770.44,-252"/>
<text text-anchor="middle" x="716" y="-229.8" font-family="Times,serif" font-size="14.00">AppComponent </text>
</g>
<!-- AppModule&#45;&gt;AppComponent  -->
<g id="edge11" class="edge">
<title>AppModule&#45;&gt;AppComponent </title>
<path fill="none" stroke="black" stroke-dasharray="1,5" d="M716,-187.11C716,-187.11 716,-205.99 716,-205.99"/>
<polygon fill="black" stroke="black" points="712.5,-205.99 716,-215.99 719.5,-205.99 712.5,-205.99"/>
</g>
<!-- AppRoutingModule -->
<g id="node11" class="node">
<title>AppRoutingModule</title>
<polygon fill="#8dd3c7" stroke="black" points="1466.27,-122 1463.27,-126 1442.27,-126 1439.27,-122 1337.73,-122 1337.73,-86 1466.27,-86 1466.27,-122"/>
<text text-anchor="middle" x="1402" y="-99.8" font-family="Times,serif" font-size="14.00">AppRoutingModule</text>
</g>
<!-- AppRoutingModule&#45;&gt;AppModule -->
<g id="edge10" class="edge">
<title>AppRoutingModule&#45;&gt;AppModule</title>
<path fill="none" stroke="black" d="M1402,-122.01C1402,-144.49 1402,-180 1402,-180 1402,-180 767.88,-180 767.88,-180"/>
<polygon fill="black" stroke="black" points="767.88,-176.5 757.88,-180 767.88,-183.5 767.88,-176.5"/>
</g>
</g>
</svg>
