<?xml version="1.0" encoding="UTF-8" standalone="no"?>
<!DOCTYPE svg PUBLIC "-//W3C//DTD SVG 1.1//EN"
 "http://www.w3.org/Graphics/SVG/1.1/DTD/svg11.dtd">
<!-- Generated by graphviz version 2.47.0 (20210316.0004)
 -->
<!-- Title: dependencies Pages: 1 -->
<svg width="1772pt" height="284pt"
 viewBox="0.00 0.00 1772.00 284.00" xmlns="http://www.w3.org/2000/svg" xmlns:xlink="http://www.w3.org/1999/xlink">
<g id="graph0" class="graph" transform="scale(1 1) rotate(0) translate(4 280)">
<title>dependencies</title>
<polygon fill="white" stroke="transparent" points="-4,4 -4,-280 1768,-280 1768,4 -4,4"/>
<text text-anchor="start" x="861.01" y="-42.4" font-family="Times-12" font-weight="bold" font-size="14.00">Legend</text>
<polygon fill="#ffffb3" stroke="transparent" points="648,-10 648,-30 668,-30 668,-10 648,-10"/>
<text text-anchor="start" x="671.63" y="-15.4" font-family="Times-12" font-size="14.00"> &#160;Declarations</text>
<polygon fill="#8dd3c7" stroke="transparent" points="761,-10 761,-30 781,-30 781,-10 761,-10"/>
<text text-anchor="start" x="784.73" y="-15.4" font-family="Times-12" font-size="14.00"> &#160;Module</text>
<polygon fill="#80b1d3" stroke="transparent" points="847,-10 847,-30 867,-30 867,-10 847,-10"/>
<text text-anchor="start" x="870.78" y="-15.4" font-family="Times-12" font-size="14.00"> &#160;Bootstrap</text>
<polygon fill="#fdb462" stroke="transparent" points="944,-10 944,-30 964,-30 964,-10 944,-10"/>
<text text-anchor="start" x="967.67" y="-15.4" font-family="Times-12" font-size="14.00"> &#160;Providers</text>
<polygon fill="#fb8072" stroke="transparent" points="1040,-10 1040,-30 1060,-30 1060,-10 1040,-10"/>
<text text-anchor="start" x="1063.73" y="-15.4" font-family="Times-12" font-size="14.00"> &#160;Exports</text>
<g id="clust1" class="cluster">
<title>cluster_AppModule</title>
<polygon fill="none" stroke="black" stroke-dasharray="1,5" points="8,-70 8,-268 1756,-268 1756,-70 8,-70"/>
</g>
<g id="clust2" class="cluster">
<title>cluster_AppModule_declarations</title>
<polygon fill="none" stroke="black" points="168,-78 168,-130 1748,-130 1748,-78 168,-78"/>
</g>
<g id="clust14" class="cluster">
<title>cluster_AppModule_imports</title>
<polygon fill="none" stroke="black" points="16,-78 16,-130 160,-130 160,-78 16,-78"/>
</g>
<g id="clust16" class="cluster">
<title>cluster_AppModule_bootstrap</title>
<polygon fill="none" stroke="black" points="784,-208 784,-260 908,-260 908,-208 784,-208"/>
</g>
<!-- AddSpotComponent -->
<g id="node1" class="node">
<title>AddSpotComponent</title>
<polygon fill="#ffffb3" stroke="black" points="1739.61,-122 1608.39,-122 1608.39,-86 1739.61,-86 1739.61,-122"/>
<text text-anchor="middle" x="1674" y="-99.8" font-family="Times,serif" font-size="14.00">AddSpotComponent</text>
</g>
<!-- AppModule -->
<g id="node12" class="node">
<title>AppModule</title>
<polygon fill="#8dd3c7" stroke="black" points="887.66,-187 884.66,-191 863.66,-191 860.66,-187 804.34,-187 804.34,-151 887.66,-151 887.66,-187"/>
<text text-anchor="middle" x="846" y="-164.8" font-family="Times,serif" font-size="14.00">AppModule</text>
</g>
<!-- AddSpotComponent&#45;&gt;AppModule -->
<g id="edge1" class="edge">
<title>AddSpotComponent&#45;&gt;AppModule</title>
<path fill="none" stroke="black" d="M1674,-122.25C1674,-145.02 1674,-181 1674,-181 1674,-181 897.91,-181 897.91,-181"/>
<polygon fill="black" stroke="black" points="897.91,-177.5 887.91,-181 897.91,-184.5 897.91,-177.5"/>
</g>
<!-- AppComponent -->
<g id="node2" class="node">
<title>AppComponent</title>
<polygon fill="#ffffb3" stroke="black" points="1590.94,-122 1485.06,-122 1485.06,-86 1590.94,-86 1590.94,-122"/>
<text text-anchor="middle" x="1538" y="-99.8" font-family="Times,serif" font-size="14.00">AppComponent</text>
</g>
<!-- AppComponent&#45;&gt;AppModule -->
<g id="edge2" class="edge">
<title>AppComponent&#45;&gt;AppModule</title>
<path fill="none" stroke="black" d="M1538,-122.28C1538,-143.32 1538,-175 1538,-175 1538,-175 897.73,-175 897.73,-175"/>
<polygon fill="black" stroke="black" points="897.73,-171.5 887.73,-175 897.73,-178.5 897.73,-171.5"/>
</g>
<!-- ButtonComponent -->
<g id="node3" class="node">
<title>ButtonComponent</title>
<polygon fill="#ffffb3" stroke="black" points="1467.95,-122 1348.05,-122 1348.05,-86 1467.95,-86 1467.95,-122"/>
<text text-anchor="middle" x="1408" y="-99.8" font-family="Times,serif" font-size="14.00">ButtonComponent</text>
</g>
<!-- ButtonComponent&#45;&gt;AppModule -->
<g id="edge3" class="edge">
<title>ButtonComponent&#45;&gt;AppModule</title>
<path fill="none" stroke="black" d="M1408,-122.11C1408,-141.34 1408,-169 1408,-169 1408,-169 897.78,-169 897.78,-169"/>
<polygon fill="black" stroke="black" points="897.78,-165.5 887.78,-169 897.78,-172.5 897.78,-165.5"/>
</g>
<!-- CommentItemComponent -->
<g id="node4" class="node">
<title>CommentItemComponent</title>
<polygon fill="#ffffb3" stroke="black" points="1330.21,-122 1167.79,-122 1167.79,-86 1330.21,-86 1330.21,-122"/>
<text text-anchor="middle" x="1249" y="-99.8" font-family="Times,serif" font-size="14.00">CommentItemComponent</text>
</g>
<!-- CommentItemComponent&#45;&gt;AppModule -->
<g id="edge4" class="edge">
<title>CommentItemComponent&#45;&gt;AppModule</title>
<path fill="none" stroke="black" d="M1249,-122.02C1249,-139.37 1249,-163 1249,-163 1249,-163 897.99,-163 897.99,-163"/>
<polygon fill="black" stroke="black" points="897.99,-159.5 887.99,-163 897.99,-166.5 897.99,-159.5"/>
</g>
<!-- CommentListComponent -->
<g id="node5" class="node">
<title>CommentListComponent</title>
<polygon fill="#ffffb3" stroke="black" points="1150.33,-122 991.67,-122 991.67,-86 1150.33,-86 1150.33,-122"/>
<text text-anchor="middle" x="1071" y="-99.8" font-family="Times,serif" font-size="14.00">CommentListComponent</text>
</g>
<!-- CommentListComponent&#45;&gt;AppModule -->
<g id="edge5" class="edge">
<title>CommentListComponent&#45;&gt;AppModule</title>
<path fill="none" stroke="black" d="M1071,-122.24C1071,-137.57 1071,-157 1071,-157 1071,-157 897.79,-157 897.79,-157"/>
<polygon fill="black" stroke="black" points="897.79,-153.5 887.79,-157 897.79,-160.5 897.79,-153.5"/>
</g>
<!-- FooterComponent -->
<g id="node6" class="node">
<title>FooterComponent</title>
<polygon fill="#ffffb3" stroke="black" points="973.88,-122 856.12,-122 856.12,-86 973.88,-86 973.88,-122"/>
<text text-anchor="middle" x="915" y="-99.8" font-family="Times,serif" font-size="14.00">FooterComponent</text>
</g>
<!-- FooterComponent&#45;&gt;AppModule -->
<g id="edge6" class="edge">
<title>FooterComponent&#45;&gt;AppModule</title>
<path fill="none" stroke="black" d="M871.94,-122.11C871.94,-122.11 871.94,-140.99 871.94,-140.99"/>
<polygon fill="black" stroke="black" points="868.44,-140.99 871.94,-150.99 875.44,-140.99 868.44,-140.99"/>
</g>
<!-- HeaderComponent -->
<g id="node7" class="node">
<title>HeaderComponent</title>
<polygon fill="#ffffb3" stroke="black" points="837.74,-122 716.26,-122 716.26,-86 837.74,-86 837.74,-122"/>
<text text-anchor="middle" x="777" y="-99.8" font-family="Times,serif" font-size="14.00">HeaderComponent</text>
</g>
<!-- HeaderComponent&#45;&gt;AppModule -->
<g id="edge7" class="edge">
<title>HeaderComponent&#45;&gt;AppModule</title>
<path fill="none" stroke="black" d="M821.02,-122.11C821.02,-122.11 821.02,-140.99 821.02,-140.99"/>
<polygon fill="black" stroke="black" points="817.52,-140.99 821.02,-150.99 824.52,-140.99 817.52,-140.99"/>
</g>
<!-- MainComponent -->
<g id="node8" class="node">
<title>MainComponent</title>
<polygon fill="#ffffb3" stroke="black" points="698.38,-122 587.62,-122 587.62,-86 698.38,-86 698.38,-122"/>
<text text-anchor="middle" x="643" y="-99.8" font-family="Times,serif" font-size="14.00">MainComponent</text>
</g>
<!-- MainComponent&#45;&gt;AppModule -->
<g id="edge8" class="edge">
<title>MainComponent&#45;&gt;AppModule</title>
<path fill="none" stroke="black" d="M643,-122.24C643,-137.57 643,-157 643,-157 643,-157 793.94,-157 793.94,-157"/>
<polygon fill="black" stroke="black" points="793.94,-160.5 803.94,-157 793.94,-153.5 793.94,-160.5"/>
</g>
<!-- MapComponent -->
<g id="node9" class="node">
<title>MapComponent</title>
<polygon fill="#ffffb3" stroke="black" points="569.49,-122 462.51,-122 462.51,-86 569.49,-86 569.49,-122"/>
<text text-anchor="middle" x="516" y="-99.8" font-family="Times,serif" font-size="14.00">MapComponent</text>
</g>
<!-- MapComponent&#45;&gt;AppModule -->
<g id="edge9" class="edge">
<title>MapComponent&#45;&gt;AppModule</title>
<path fill="none" stroke="black" d="M516,-122.02C516,-139.37 516,-163 516,-163 516,-163 794.21,-163 794.21,-163"/>
<polygon fill="black" stroke="black" points="794.21,-166.5 804.21,-163 794.21,-159.5 794.21,-166.5"/>
</g>
<!-- SpotDetailsComponent -->
<g id="node10" class="node">
<title>SpotDetailsComponent</title>
<polygon fill="#ffffb3" stroke="black" points="444.16,-122 297.84,-122 297.84,-86 444.16,-86 444.16,-122"/>
<text text-anchor="middle" x="371" y="-99.8" font-family="Times,serif" font-size="14.00">SpotDetailsComponent</text>
</g>
<!-- SpotDetailsComponent&#45;&gt;AppModule -->
<g id="edge10" class="edge">
<title>SpotDetailsComponent&#45;&gt;AppModule</title>
<path fill="none" stroke="black" d="M371,-122.11C371,-141.34 371,-169 371,-169 371,-169 794.26,-169 794.26,-169"/>
<polygon fill="black" stroke="black" points="794.26,-172.5 804.26,-169 794.26,-165.5 794.26,-172.5"/>
</g>
<!-- TagComponent -->
<g id="node11" class="node">
<title>TagComponent</title>
<polygon fill="#ffffb3" stroke="black" points="279.6,-122 176.4,-122 176.4,-86 279.6,-86 279.6,-122"/>
<text text-anchor="middle" x="228" y="-99.8" font-family="Times,serif" font-size="14.00">TagComponent</text>
</g>
<!-- TagComponent&#45;&gt;AppModule -->
<g id="edge11" class="edge">
<title>TagComponent&#45;&gt;AppModule</title>
<path fill="none" stroke="black" d="M228,-122.28C228,-143.32 228,-175 228,-175 228,-175 794.01,-175 794.01,-175"/>
<polygon fill="black" stroke="black" points="794.01,-178.5 804.01,-175 794.01,-171.5 794.01,-178.5"/>
</g>
<!-- AppComponent  -->
<g id="node14" class="node">
<title>AppComponent </title>
<polygon fill="#80b1d3" stroke="black" points="900.44,-252 791.56,-252 791.56,-216 900.44,-216 900.44,-252"/>
<text text-anchor="middle" x="846" y="-229.8" font-family="Times,serif" font-size="14.00">AppComponent </text>
</g>
<!-- AppModule&#45;&gt;AppComponent  -->
<g id="edge13" class="edge">
<title>AppModule&#45;&gt;AppComponent </title>
<path fill="none" stroke="black" stroke-dasharray="1,5" d="M846,-187.11C846,-187.11 846,-205.99 846,-205.99"/>
<polygon fill="black" stroke="black" points="842.5,-205.99 846,-215.99 849.5,-205.99 842.5,-205.99"/>
</g>
<!-- AppRoutingModule -->
<g id="node13" class="node">
<title>AppRoutingModule</title>
<polygon fill="#8dd3c7" stroke="black" points="152.27,-122 149.27,-126 128.27,-126 125.27,-122 23.73,-122 23.73,-86 152.27,-86 152.27,-122"/>
<text text-anchor="middle" x="88" y="-99.8" font-family="Times,serif" font-size="14.00">AppRoutingModule</text>
</g>
<!-- AppRoutingModule&#45;&gt;AppModule -->
<g id="edge12" class="edge">
<title>AppRoutingModule&#45;&gt;AppModule</title>
<path fill="none" stroke="black" d="M88,-122.25C88,-145.02 88,-181 88,-181 88,-181 794.17,-181 794.17,-181"/>
<polygon fill="black" stroke="black" points="794.17,-184.5 804.17,-181 794.17,-177.5 794.17,-184.5"/>
</g>
</g>
</svg>
