<?xml version="1.0" encoding="UTF-8" standalone="no"?>
<!DOCTYPE svg PUBLIC "-//W3C//DTD SVG 1.1//EN"
 "http://www.w3.org/Graphics/SVG/1.1/DTD/svg11.dtd">
<!-- Generated by graphviz version 2.47.0 (20210316.0004)
 -->
<!-- Title: dependencies Pages: 1 -->
<svg width="1498pt" height="284pt"
 viewBox="0.00 0.00 1498.00 284.00" xmlns="http://www.w3.org/2000/svg" xmlns:xlink="http://www.w3.org/1999/xlink">
<g id="graph0" class="graph" transform="scale(1 1) rotate(0) translate(4 280)">
<title>dependencies</title>
<polygon fill="white" stroke="transparent" points="-4,4 -4,-280 1494,-280 1494,4 -4,4"/>
<text text-anchor="start" x="724.01" y="-42.4" font-family="Times-12" font-weight="bold" font-size="14.00">Legend</text>
<polygon fill="#ffffb3" stroke="transparent" points="511,-10 511,-30 531,-30 531,-10 511,-10"/>
<text text-anchor="start" x="534.63" y="-15.4" font-family="Times-12" font-size="14.00"> &#160;Declarations</text>
<polygon fill="#8dd3c7" stroke="transparent" points="624,-10 624,-30 644,-30 644,-10 624,-10"/>
<text text-anchor="start" x="647.73" y="-15.4" font-family="Times-12" font-size="14.00"> &#160;Module</text>
<polygon fill="#80b1d3" stroke="transparent" points="710,-10 710,-30 730,-30 730,-10 710,-10"/>
<text text-anchor="start" x="733.78" y="-15.4" font-family="Times-12" font-size="14.00"> &#160;Bootstrap</text>
<polygon fill="#fdb462" stroke="transparent" points="807,-10 807,-30 827,-30 827,-10 807,-10"/>
<text text-anchor="start" x="830.67" y="-15.4" font-family="Times-12" font-size="14.00"> &#160;Providers</text>
<polygon fill="#fb8072" stroke="transparent" points="903,-10 903,-30 923,-30 923,-10 903,-10"/>
<text text-anchor="start" x="926.73" y="-15.4" font-family="Times-12" font-size="14.00"> &#160;Exports</text>
<g id="clust1" class="cluster">
<title>cluster_AppModule</title>
<polygon fill="none" stroke="black" stroke-dasharray="1,5" points="8,-70 8,-268 1482,-268 1482,-70 8,-70"/>
</g>
<g id="clust2" class="cluster">
<title>cluster_AppModule_declarations</title>
<polygon fill="none" stroke="black" points="168,-78 168,-130 1474,-130 1474,-78 168,-78"/>
</g>
<g id="clust12" class="cluster">
<title>cluster_AppModule_imports</title>
<polygon fill="none" stroke="black" points="16,-78 16,-130 160,-130 160,-78 16,-78"/>
</g>
<g id="clust14" class="cluster">
<title>cluster_AppModule_bootstrap</title>
<polygon fill="none" stroke="black" points="659,-208 659,-260 783,-260 783,-208 659,-208"/>
</g>
<!-- AppComponent -->
<g id="node1" class="node">
<title>AppComponent</title>
<polygon fill="#ffffb3" stroke="black" points="1465.94,-122 1360.06,-122 1360.06,-86 1465.94,-86 1465.94,-122"/>
<text text-anchor="middle" x="1413" y="-99.8" font-family="Times,serif" font-size="14.00">AppComponent</text>
</g>
<!-- AppModule -->
<g id="node10" class="node">
<title>AppModule</title>
<polygon fill="#8dd3c7" stroke="black" points="762.66,-187 759.66,-191 738.66,-191 735.66,-187 679.34,-187 679.34,-151 762.66,-151 762.66,-187"/>
<text text-anchor="middle" x="721" y="-164.8" font-family="Times,serif" font-size="14.00">AppModule</text>
</g>
<!-- AppComponent&#45;&gt;AppModule -->
<g id="edge1" class="edge">
<title>AppComponent&#45;&gt;AppModule</title>
<path fill="none" stroke="black" d="M1413,-122.01C1413,-144.49 1413,-180 1413,-180 1413,-180 772.73,-180 772.73,-180"/>
<polygon fill="black" stroke="black" points="772.73,-176.5 762.73,-180 772.73,-183.5 772.73,-176.5"/>
</g>
<!-- ButtonComponent -->
<g id="node2" class="node">
<title>ButtonComponent</title>
<polygon fill="#ffffb3" stroke="black" points="1342.95,-122 1223.05,-122 1223.05,-86 1342.95,-86 1342.95,-122"/>
<text text-anchor="middle" x="1283" y="-99.8" font-family="Times,serif" font-size="14.00">ButtonComponent</text>
</g>
<!-- ButtonComponent&#45;&gt;AppModule -->
<g id="edge2" class="edge">
<title>ButtonComponent&#45;&gt;AppModule</title>
<path fill="none" stroke="black" d="M1283,-122.13C1283,-142.57 1283,-173 1283,-173 1283,-173 772.78,-173 772.78,-173"/>
<polygon fill="black" stroke="black" points="772.78,-169.5 762.78,-173 772.78,-176.5 772.78,-169.5"/>
</g>
<!-- CommentItemComponent -->
<g id="node3" class="node">
<title>CommentItemComponent</title>
<polygon fill="#ffffb3" stroke="black" points="1205.21,-122 1042.79,-122 1042.79,-86 1205.21,-86 1205.21,-122"/>
<text text-anchor="middle" x="1124" y="-99.8" font-family="Times,serif" font-size="14.00">CommentItemComponent</text>
</g>
<!-- CommentItemComponent&#45;&gt;AppModule -->
<g id="edge3" class="edge">
<title>CommentItemComponent&#45;&gt;AppModule</title>
<path fill="none" stroke="black" d="M1124,-122.27C1124,-140.56 1124,-166 1124,-166 1124,-166 772.99,-166 772.99,-166"/>
<polygon fill="black" stroke="black" points="772.99,-162.5 762.99,-166 772.99,-169.5 772.99,-162.5"/>
</g>
<!-- CommentListComponent -->
<g id="node4" class="node">
<title>CommentListComponent</title>
<polygon fill="#ffffb3" stroke="black" points="1025.33,-122 866.67,-122 866.67,-86 1025.33,-86 1025.33,-122"/>
<text text-anchor="middle" x="946" y="-99.8" font-family="Times,serif" font-size="14.00">CommentListComponent</text>
</g>
<!-- CommentListComponent&#45;&gt;AppModule -->
<g id="edge4" class="edge">
<title>CommentListComponent&#45;&gt;AppModule</title>
<path fill="none" stroke="black" d="M946,-122.01C946,-138.05 946,-159 946,-159 946,-159 772.79,-159 772.79,-159"/>
<polygon fill="black" stroke="black" points="772.79,-155.5 762.79,-159 772.79,-162.5 772.79,-155.5"/>
</g>
<!-- FooterComponent -->
<g id="node5" class="node">
<title>FooterComponent</title>
<polygon fill="#ffffb3" stroke="black" points="848.88,-122 731.12,-122 731.12,-86 848.88,-86 848.88,-122"/>
<text text-anchor="middle" x="790" y="-99.8" font-family="Times,serif" font-size="14.00">FooterComponent</text>
</g>
<!-- FooterComponent&#45;&gt;AppModule -->
<g id="edge5" class="edge">
<title>FooterComponent&#45;&gt;AppModule</title>
<path fill="none" stroke="black" d="M746.94,-122.11C746.94,-122.11 746.94,-140.99 746.94,-140.99"/>
<polygon fill="black" stroke="black" points="743.44,-140.99 746.94,-150.99 750.44,-140.99 743.44,-140.99"/>
</g>
<!-- HeaderComponent -->
<g id="node6" class="node">
<title>HeaderComponent</title>
<polygon fill="#ffffb3" stroke="black" points="712.74,-122 591.26,-122 591.26,-86 712.74,-86 712.74,-122"/>
<text text-anchor="middle" x="652" y="-99.8" font-family="Times,serif" font-size="14.00">HeaderComponent</text>
</g>
<!-- HeaderComponent&#45;&gt;AppModule -->
<g id="edge6" class="edge">
<title>HeaderComponent&#45;&gt;AppModule</title>
<path fill="none" stroke="black" d="M696.02,-122.11C696.02,-122.11 696.02,-140.99 696.02,-140.99"/>
<polygon fill="black" stroke="black" points="692.52,-140.99 696.02,-150.99 699.52,-140.99 692.52,-140.99"/>
</g>
<!-- MainComponent -->
<g id="node7" class="node">
<title>MainComponent</title>
<polygon fill="#ffffb3" stroke="black" points="573.38,-122 462.62,-122 462.62,-86 573.38,-86 573.38,-122"/>
<text text-anchor="middle" x="518" y="-99.8" font-family="Times,serif" font-size="14.00">MainComponent</text>
</g>
<!-- MainComponent&#45;&gt;AppModule -->
<g id="edge7" class="edge">
<title>MainComponent&#45;&gt;AppModule</title>
<path fill="none" stroke="black" d="M518,-122.01C518,-138.05 518,-159 518,-159 518,-159 668.94,-159 668.94,-159"/>
<polygon fill="black" stroke="black" points="668.94,-162.5 678.94,-159 668.94,-155.5 668.94,-162.5"/>
</g>
<!-- SpotDetailsComponent -->
<g id="node8" class="node">
<title>SpotDetailsComponent</title>
<polygon fill="#ffffb3" stroke="black" points="444.16,-122 297.84,-122 297.84,-86 444.16,-86 444.16,-122"/>
<text text-anchor="middle" x="371" y="-99.8" font-family="Times,serif" font-size="14.00">SpotDetailsComponent</text>
</g>
<!-- SpotDetailsComponent&#45;&gt;AppModule -->
<g id="edge8" class="edge">
<title>SpotDetailsComponent&#45;&gt;AppModule</title>
<path fill="none" stroke="black" d="M371,-122.27C371,-140.56 371,-166 371,-166 371,-166 669.13,-166 669.13,-166"/>
<polygon fill="black" stroke="black" points="669.13,-169.5 679.13,-166 669.13,-162.5 669.13,-169.5"/>
</g>
<!-- TagComponent -->
<g id="node9" class="node">
<title>TagComponent</title>
<polygon fill="#ffffb3" stroke="black" points="279.6,-122 176.4,-122 176.4,-86 279.6,-86 279.6,-122"/>
<text text-anchor="middle" x="228" y="-99.8" font-family="Times,serif" font-size="14.00">TagComponent</text>
</g>
<!-- TagComponent&#45;&gt;AppModule -->
<g id="edge9" class="edge">
<title>TagComponent&#45;&gt;AppModule</title>
<path fill="none" stroke="black" d="M228,-122.13C228,-142.57 228,-173 228,-173 228,-173 668.97,-173 668.97,-173"/>
<polygon fill="black" stroke="black" points="668.97,-176.5 678.97,-173 668.97,-169.5 668.97,-176.5"/>
</g>
<!-- AppComponent  -->
<g id="node12" class="node">
<title>AppComponent </title>
<polygon fill="#80b1d3" stroke="black" points="775.44,-252 666.56,-252 666.56,-216 775.44,-216 775.44,-252"/>
<text text-anchor="middle" x="721" y="-229.8" font-family="Times,serif" font-size="14.00">AppComponent </text>
</g>
<!-- AppModule&#45;&gt;AppComponent  -->
<g id="edge11" class="edge">
<title>AppModule&#45;&gt;AppComponent </title>
<path fill="none" stroke="black" stroke-dasharray="1,5" d="M721,-187.11C721,-187.11 721,-205.99 721,-205.99"/>
<polygon fill="black" stroke="black" points="717.5,-205.99 721,-215.99 724.5,-205.99 717.5,-205.99"/>
</g>
<!-- AppRoutingModule -->
<g id="node11" class="node">
<title>AppRoutingModule</title>
<polygon fill="#8dd3c7" stroke="black" points="152.27,-122 149.27,-126 128.27,-126 125.27,-122 23.73,-122 23.73,-86 152.27,-86 152.27,-122"/>
<text text-anchor="middle" x="88" y="-99.8" font-family="Times,serif" font-size="14.00">AppRoutingModule</text>
</g>
<!-- AppRoutingModule&#45;&gt;AppModule -->
<g id="edge10" class="edge">
<title>AppRoutingModule&#45;&gt;AppModule</title>
<path fill="none" stroke="black" d="M88,-122.01C88,-144.49 88,-180 88,-180 88,-180 668.98,-180 668.98,-180"/>
<polygon fill="black" stroke="black" points="668.98,-183.5 678.98,-180 668.98,-176.5 668.98,-183.5"/>
</g>
</g>
</svg>
