<?xml version="1.0" encoding="UTF-8" standalone="no"?>
<!DOCTYPE svg PUBLIC "-//W3C//DTD SVG 1.1//EN"
 "http://www.w3.org/Graphics/SVG/1.1/DTD/svg11.dtd">
<!-- Generated by graphviz version 2.47.0 (20210316.0004)
 -->
<!-- Title: dependencies Pages: 1 -->
<svg width="1623pt" height="284pt"
 viewBox="0.00 0.00 1623.00 284.00" xmlns="http://www.w3.org/2000/svg" xmlns:xlink="http://www.w3.org/1999/xlink">
<g id="graph0" class="graph" transform="scale(1 1) rotate(0) translate(4 280)">
<title>dependencies</title>
<polygon fill="white" stroke="transparent" points="-4,4 -4,-280 1619,-280 1619,4 -4,4"/>
<text text-anchor="start" x="786.51" y="-42.4" font-family="Times-12" font-weight="bold" font-size="14.00">Legend</text>
<polygon fill="#ffffb3" stroke="transparent" points="573.5,-10 573.5,-30 593.5,-30 593.5,-10 573.5,-10"/>
<text text-anchor="start" x="597.13" y="-15.4" font-family="Times-12" font-size="14.00"> &#160;Declarations</text>
<polygon fill="#8dd3c7" stroke="transparent" points="686.5,-10 686.5,-30 706.5,-30 706.5,-10 686.5,-10"/>
<text text-anchor="start" x="710.23" y="-15.4" font-family="Times-12" font-size="14.00"> &#160;Module</text>
<polygon fill="#80b1d3" stroke="transparent" points="772.5,-10 772.5,-30 792.5,-30 792.5,-10 772.5,-10"/>
<text text-anchor="start" x="796.28" y="-15.4" font-family="Times-12" font-size="14.00"> &#160;Bootstrap</text>
<polygon fill="#fdb462" stroke="transparent" points="869.5,-10 869.5,-30 889.5,-30 889.5,-10 869.5,-10"/>
<text text-anchor="start" x="893.17" y="-15.4" font-family="Times-12" font-size="14.00"> &#160;Providers</text>
<polygon fill="#fb8072" stroke="transparent" points="965.5,-10 965.5,-30 985.5,-30 985.5,-10 965.5,-10"/>
<text text-anchor="start" x="989.23" y="-15.4" font-family="Times-12" font-size="14.00"> &#160;Exports</text>
<g id="clust1" class="cluster">
<title>cluster_AppModule</title>
<polygon fill="none" stroke="black" stroke-dasharray="1,5" points="8,-70 8,-268 1607,-268 1607,-70 8,-70"/>
</g>
<g id="clust2" class="cluster">
<title>cluster_AppModule_declarations</title>
<polygon fill="none" stroke="black" points="168,-78 168,-130 1599,-130 1599,-78 168,-78"/>
</g>
<g id="clust13" class="cluster">
<title>cluster_AppModule_imports</title>
<polygon fill="none" stroke="black" points="16,-78 16,-130 160,-130 160,-78 16,-78"/>
</g>
<g id="clust15" class="cluster">
<title>cluster_AppModule_bootstrap</title>
<polygon fill="none" stroke="black" points="715,-208 715,-260 839,-260 839,-208 715,-208"/>
</g>
<!-- AppComponent -->
<g id="node1" class="node">
<title>AppComponent</title>
<polygon fill="#ffffb3" stroke="black" points="1590.94,-122 1485.06,-122 1485.06,-86 1590.94,-86 1590.94,-122"/>
<text text-anchor="middle" x="1538" y="-99.8" font-family="Times,serif" font-size="14.00">AppComponent</text>
</g>
<!-- AppModule -->
<g id="node11" class="node">
<title>AppModule</title>
<polygon fill="#8dd3c7" stroke="black" points="818.66,-187 815.66,-191 794.66,-191 791.66,-187 735.34,-187 735.34,-151 818.66,-151 818.66,-187"/>
<text text-anchor="middle" x="777" y="-164.8" font-family="Times,serif" font-size="14.00">AppModule</text>
</g>
<!-- AppComponent&#45;&gt;AppModule -->
<g id="edge1" class="edge">
<title>AppComponent&#45;&gt;AppModule</title>
<path fill="none" stroke="black" d="M1538,-122.25C1538,-145.02 1538,-181 1538,-181 1538,-181 828.73,-181 828.73,-181"/>
<polygon fill="black" stroke="black" points="828.73,-177.5 818.73,-181 828.73,-184.5 828.73,-177.5"/>
</g>
<!-- ButtonComponent -->
<g id="node2" class="node">
<title>ButtonComponent</title>
<polygon fill="#ffffb3" stroke="black" points="1467.95,-122 1348.05,-122 1348.05,-86 1467.95,-86 1467.95,-122"/>
<text text-anchor="middle" x="1408" y="-99.8" font-family="Times,serif" font-size="14.00">ButtonComponent</text>
</g>
<!-- ButtonComponent&#45;&gt;AppModule -->
<g id="edge2" class="edge">
<title>ButtonComponent&#45;&gt;AppModule</title>
<path fill="none" stroke="black" d="M1408,-122.28C1408,-143.32 1408,-175 1408,-175 1408,-175 828.89,-175 828.89,-175"/>
<polygon fill="black" stroke="black" points="828.89,-171.5 818.89,-175 828.89,-178.5 828.89,-171.5"/>
</g>
<!-- CommentItemComponent -->
<g id="node3" class="node">
<title>CommentItemComponent</title>
<polygon fill="#ffffb3" stroke="black" points="1330.21,-122 1167.79,-122 1167.79,-86 1330.21,-86 1330.21,-122"/>
<text text-anchor="middle" x="1249" y="-99.8" font-family="Times,serif" font-size="14.00">CommentItemComponent</text>
</g>
<!-- CommentItemComponent&#45;&gt;AppModule -->
<g id="edge3" class="edge">
<title>CommentItemComponent&#45;&gt;AppModule</title>
<path fill="none" stroke="black" d="M1249,-122.11C1249,-141.34 1249,-169 1249,-169 1249,-169 828.89,-169 828.89,-169"/>
<polygon fill="black" stroke="black" points="828.89,-165.5 818.89,-169 828.89,-172.5 828.89,-165.5"/>
</g>
<!-- CommentListComponent -->
<g id="node4" class="node">
<title>CommentListComponent</title>
<polygon fill="#ffffb3" stroke="black" points="1150.33,-122 991.67,-122 991.67,-86 1150.33,-86 1150.33,-122"/>
<text text-anchor="middle" x="1071" y="-99.8" font-family="Times,serif" font-size="14.00">CommentListComponent</text>
</g>
<!-- CommentListComponent&#45;&gt;AppModule -->
<g id="edge4" class="edge">
<title>CommentListComponent&#45;&gt;AppModule</title>
<path fill="none" stroke="black" d="M1071,-122.02C1071,-139.37 1071,-163 1071,-163 1071,-163 828.81,-163 828.81,-163"/>
<polygon fill="black" stroke="black" points="828.81,-159.5 818.81,-163 828.81,-166.5 828.81,-159.5"/>
</g>
<!-- FooterComponent -->
<g id="node5" class="node">
<title>FooterComponent</title>
<polygon fill="#ffffb3" stroke="black" points="973.88,-122 856.12,-122 856.12,-86 973.88,-86 973.88,-122"/>
<text text-anchor="middle" x="915" y="-99.8" font-family="Times,serif" font-size="14.00">FooterComponent</text>
</g>
<!-- FooterComponent&#45;&gt;AppModule -->
<g id="edge5" class="edge">
<title>FooterComponent&#45;&gt;AppModule</title>
<path fill="none" stroke="black" d="M915,-122.24C915,-137.57 915,-157 915,-157 915,-157 828.78,-157 828.78,-157"/>
<polygon fill="black" stroke="black" points="828.78,-153.5 818.78,-157 828.78,-160.5 828.78,-153.5"/>
</g>
<!-- HeaderComponent -->
<g id="node6" class="node">
<title>HeaderComponent</title>
<polygon fill="#ffffb3" stroke="black" points="837.74,-122 716.26,-122 716.26,-86 837.74,-86 837.74,-122"/>
<text text-anchor="middle" x="777" y="-99.8" font-family="Times,serif" font-size="14.00">HeaderComponent</text>
</g>
<!-- HeaderComponent&#45;&gt;AppModule -->
<g id="edge6" class="edge">
<title>HeaderComponent&#45;&gt;AppModule</title>
<path fill="none" stroke="black" d="M777,-122.11C777,-122.11 777,-140.99 777,-140.99"/>
<polygon fill="black" stroke="black" points="773.5,-140.99 777,-150.99 780.5,-140.99 773.5,-140.99"/>
</g>
<!-- MainComponent -->
<g id="node7" class="node">
<title>MainComponent</title>
<polygon fill="#ffffb3" stroke="black" points="698.38,-122 587.62,-122 587.62,-86 698.38,-86 698.38,-122"/>
<text text-anchor="middle" x="643" y="-99.8" font-family="Times,serif" font-size="14.00">MainComponent</text>
</g>
<!-- MainComponent&#45;&gt;AppModule -->
<g id="edge7" class="edge">
<title>MainComponent&#45;&gt;AppModule</title>
<path fill="none" stroke="black" d="M643,-122.24C643,-137.57 643,-157 643,-157 643,-157 725.34,-157 725.34,-157"/>
<polygon fill="black" stroke="black" points="725.34,-160.5 735.34,-157 725.34,-153.5 725.34,-160.5"/>
</g>
<!-- MapComponent -->
<g id="node8" class="node">
<title>MapComponent</title>
<polygon fill="#ffffb3" stroke="black" points="569.49,-122 462.51,-122 462.51,-86 569.49,-86 569.49,-122"/>
<text text-anchor="middle" x="516" y="-99.8" font-family="Times,serif" font-size="14.00">MapComponent</text>
</g>
<!-- MapComponent&#45;&gt;AppModule -->
<g id="edge8" class="edge">
<title>MapComponent&#45;&gt;AppModule</title>
<path fill="none" stroke="black" d="M516,-122.02C516,-139.37 516,-163 516,-163 516,-163 725.07,-163 725.07,-163"/>
<polygon fill="black" stroke="black" points="725.07,-166.5 735.07,-163 725.07,-159.5 725.07,-166.5"/>
</g>
<!-- SpotDetailsComponent -->
<g id="node9" class="node">
<title>SpotDetailsComponent</title>
<polygon fill="#ffffb3" stroke="black" points="444.16,-122 297.84,-122 297.84,-86 444.16,-86 444.16,-122"/>
<text text-anchor="middle" x="371" y="-99.8" font-family="Times,serif" font-size="14.00">SpotDetailsComponent</text>
</g>
<!-- SpotDetailsComponent&#45;&gt;AppModule -->
<g id="edge9" class="edge">
<title>SpotDetailsComponent&#45;&gt;AppModule</title>
<path fill="none" stroke="black" d="M371,-122.11C371,-141.34 371,-169 371,-169 371,-169 725.08,-169 725.08,-169"/>
<polygon fill="black" stroke="black" points="725.08,-172.5 735.08,-169 725.08,-165.5 725.08,-172.5"/>
</g>
<!-- TagComponent -->
<g id="node10" class="node">
<title>TagComponent</title>
<polygon fill="#ffffb3" stroke="black" points="279.6,-122 176.4,-122 176.4,-86 279.6,-86 279.6,-122"/>
<text text-anchor="middle" x="228" y="-99.8" font-family="Times,serif" font-size="14.00">TagComponent</text>
</g>
<!-- TagComponent&#45;&gt;AppModule -->
<g id="edge10" class="edge">
<title>TagComponent&#45;&gt;AppModule</title>
<path fill="none" stroke="black" d="M228,-122.28C228,-143.32 228,-175 228,-175 228,-175 725.29,-175 725.29,-175"/>
<polygon fill="black" stroke="black" points="725.29,-178.5 735.29,-175 725.29,-171.5 725.29,-178.5"/>
</g>
<!-- AppComponent  -->
<g id="node13" class="node">
<title>AppComponent </title>
<polygon fill="#80b1d3" stroke="black" points="831.44,-252 722.56,-252 722.56,-216 831.44,-216 831.44,-252"/>
<text text-anchor="middle" x="777" y="-229.8" font-family="Times,serif" font-size="14.00">AppComponent </text>
</g>
<!-- AppModule&#45;&gt;AppComponent  -->
<g id="edge12" class="edge">
<title>AppModule&#45;&gt;AppComponent </title>
<path fill="none" stroke="black" stroke-dasharray="1,5" d="M777,-187.11C777,-187.11 777,-205.99 777,-205.99"/>
<polygon fill="black" stroke="black" points="773.5,-205.99 777,-215.99 780.5,-205.99 773.5,-205.99"/>
</g>
<!-- AppRoutingModule -->
<g id="node12" class="node">
<title>AppRoutingModule</title>
<polygon fill="#8dd3c7" stroke="black" points="152.27,-122 149.27,-126 128.27,-126 125.27,-122 23.73,-122 23.73,-86 152.27,-86 152.27,-122"/>
<text text-anchor="middle" x="88" y="-99.8" font-family="Times,serif" font-size="14.00">AppRoutingModule</text>
</g>
<!-- AppRoutingModule&#45;&gt;AppModule -->
<g id="edge11" class="edge">
<title>AppRoutingModule&#45;&gt;AppModule</title>
<path fill="none" stroke="black" d="M88,-122.25C88,-145.02 88,-181 88,-181 88,-181 725.19,-181 725.19,-181"/>
<polygon fill="black" stroke="black" points="725.19,-184.5 735.19,-181 725.19,-177.5 725.19,-184.5"/>
</g>
</g>
</svg>
